<?xml version="1.0" encoding="utf-8"?>
<!-- Generator: Adobe Illustrator 16.0.0, SVG Export Plug-In . SVG Version: 6.00 Build 0)  -->
<!DOCTYPE svg PUBLIC "-//W3C//DTD SVG 1.1//EN" "http://www.w3.org/Graphics/SVG/1.1/DTD/svg11.dtd">
<svg version="1.1" id="Layer_1" xmlns="http://www.w3.org/2000/svg" xmlns:xlink="http://www.w3.org/1999/xlink" x="0px" y="0px"
	 width="32px" height="32px" viewBox="0 0 32 32" enable-background="new 0 0 32 32" xml:space="preserve">
<g>
	<path fill="#333333" d="M16.001,2.506C8.548,2.506,2.507,8.547,2.507,16c0,5.37,3.145,9.993,7.686,12.165l0.422-8.161
		c0,0-0.794-0.261-0.968-0.346c-1.685-0.742-2.909-2.928-2.909-5.764c0-3.095,2.4-5.761,4.721-5.783c0.003,0,0.003,0,0.005,0
		c0.001,0,0.003,0,0.004,0c2.321,0.022,4.722,2.688,4.722,5.783c0,2.836-1.226,5.021-2.908,5.764
		c-0.013,0.006-0.976,0.355-0.976,0.355l0.472,9.074c1.035,0.255,2.111,0.404,3.225,0.404c1.502,0,2.94-0.256,4.29-0.708
		l0.418-8.087c-1.102-0.242-2.041-0.943-2.63-1.823C17.352,17.781,18.643,8.11,18.643,8.11h0.84v9.076h0.834V8.111h0.912v9.077h0.83
		V8.111h0.946v9.077h0.833V8.111h0.645c0,0,1.291,9.671,0.561,10.764c-0.583,0.871-1.514,1.57-2.602,1.818
		c-0.02,0.007-0.037,0.014-0.037,0.014l0.363,6.956c4.02-2.337,6.729-6.679,6.729-11.663C29.494,8.547,23.453,2.506,16.001,2.506z"
		/>
	<path fill="#333333" d="M8.713,12.522c0.048-0.197,0.113-0.384,0.116-0.387c0.021-0.074-0.018-0.149-0.098-0.197
		c-0.076-0.041-0.169-0.02-0.212,0.046c0,0-0.092,0.147-0.226,0.364c-0.109,0.187-0.27,0.486-0.38,0.858
		c-0.095,0.326-0.209,0.76-0.26,1.245c-0.022,0.255-0.027,0.485-0.019,0.722c0.019,0.27,0.06,0.501,0.138,0.765
		c0.265,0.753,0.469,1.483,1.206,2.203c0.233,0.239,0.472,0.402,0.645,0.522l0.061,0.043c0.037,0.024,0.073,0.047,0.108,0.067
		c0.145,0.076,0.242,0.104,0.26,0.107c0.072,0.02,0.146-0.016,0.177-0.074c0.029-0.062,0.008-0.139-0.052-0.188
		c0,0-0.084-0.073-0.192-0.21c-0.074-0.083-0.154-0.203-0.247-0.339c-0.066-0.096-0.144-0.204-0.216-0.31
		c-0.359-0.548-0.566-1.312-0.852-2.096c-0.056-0.17-0.102-0.39-0.119-0.577c-0.023-0.216-0.034-0.424-0.034-0.617
		c-0.008-0.448,0.012-0.833,0.051-1.145C8.613,12.974,8.648,12.71,8.713,12.522z"/>
	<path fill="#333333" d="M16.001,0C7.179,0,0,7.178,0,16c0,8.82,7.179,16,16.001,16C24.822,32,32,24.82,32,16
		C32,7.178,24.822,0,16.001,0z M16.001,30.807C7.836,30.807,1.193,24.164,1.193,16c0-8.165,6.643-14.808,14.808-14.808
		c8.164,0,14.808,6.643,14.808,14.808C30.809,24.164,24.165,30.807,16.001,30.807z"/>
</g>
</svg>
